
        <svg xmlns="http://www.w3.org/2000/svg" xmlns:xlink="http://www.w3.org/1999/xlink" version="1.1" width="3192" 
        height="3167.7873021474566" viewBox="0 0 3192 3167.7873021474566">
			<rect fill="#ffffff" width="3192" height="3167.7873021474566"/>
			<g transform="scale(9.6) translate(10, 10)">
				<defs id="SvgjsDefs1253"></defs><g id="SvgjsG1254" featureKey="rootContainer" transform="matrix(3.0663293604554758,0,0,3.0663293604554758,0.13628133105503454,-0.028098779708712256)" fill="#111111"><path xmlns="http://www.w3.org/2000/svg" d="M101.8 83.6l-.2-29.5c0-6 .1-12.2-.2-18-.1-2.5-.1-5.1-.1-7.8 0-4.7-.1-9-.4-13.2l-.2-4.2c-.1-2.7-.2-5.3-.3-8V1h-7.3L77.2.7H66.6a25.7 25.7 0 0 0-5.5.6l-.6.3H49.8c-.1-.2-.8-.3-2.2-.4L34.3.3a130.5 130.5 0 0 0-18.8.1C12.3.6 9 .8 4.6.9L1.5.5H.4v1.2c-.2 2-.3 4.3-.3 7s0 6.8-.1 10.2 0 5.3 0 8a42.2 42.2 0 0 0 .4 6.9 20.3 20.3 0 0 1 .3 2.9c.1 3.8.4 4.8.8 5.5v17.6l-.2.5c.1 4-.1 7.6-.2 11.3-.3 7.4-.4 15-.1 22.5a25.5 25.5 0 0 0 .5 4.9v.8H6l-.2.2h5.4a51 51 0 0 1 8.6.4 21.1 21.1 0 0 0 3.8.3c6.6-.1 12.7.1 18.9.4h6.7l13.9-.3c6.1-.1 11.9-.5 18.3-.5h9.7l3.5-.2 2.8-.5h2.3v-1c.3 1.6.6 1.4 1-.8.1-.6.2-1.3.3-2s.3-2.6.5-3.4a51.3 51.3 0 0 0 .3-8.8z"></path></g><g id="SvgjsG1255" featureKey="symbolFeature-0" transform="matrix(0.9296290353038386,0,0,0.9296290353038386,109.87512932742646,78.5177352562301)" fill="#ffffff"><g xmlns="http://www.w3.org/2000/svg"><g><path d="M85.351,13.957c-3.575-3.575-9.371-3.575-12.946,0c-3.204,3.204-3.534,8.19-0.996,11.764L60.537,36.592    c-1.924-1.338-4.259-2.123-6.775-2.123c-2.725,0-5.239,0.922-7.247,2.469l-7.636-7.636c1.604-2.71,1.242-6.261-1.087-8.59    c-2.759-2.759-7.231-2.758-9.989,0c-2.759,2.758-2.759,7.231,0,9.989c2.336,2.336,5.901,2.693,8.614,1.072l7.673,7.673    c-1.139,1.587-1.896,3.465-2.139,5.499H30.122c-0.785-4.259-4.515-7.486-9-7.485c-5.056,0-9.155,4.099-9.155,9.155    c0,5.056,4.098,9.155,9.155,9.155c4.433,0,8.129-3.151,8.973-7.334h11.951c0.886,5.031,4.944,8.981,10.027,9.707v12.42    c-4.28,0.768-7.528,4.507-7.528,9.008c0,5.056,4.099,9.155,9.155,9.155c5.056,0,9.155-4.099,9.155-9.155    c0-4.418-3.129-8.104-7.292-8.964V58.126c5.709-0.87,10.097-5.813,10.097-11.761c0-2.788-0.964-5.354-2.576-7.384l10.848-10.848    c3.545,2.281,8.318,1.873,11.42-1.229C88.926,23.329,88.926,17.532,85.351,13.957z M53.762,54.661    c-4.574,0-8.295-3.721-8.295-8.295c0-4.574,3.721-8.295,8.295-8.295s8.295,3.721,8.295,8.295    C62.057,50.94,58.336,54.661,53.762,54.661z"></path></g></g></g><g id="SvgjsG1256" featureKey="nameFeature-0" transform="matrix(1.2140341952841507,0,0,1.2140341952841507,57.16547518937098,171.72477833122352)" fill="#ffffff"><path d="M-0.96 40 l5.64 -32 l8.4 0 l-0.56 3.2 l-4.4 0 l-2.12 12 l3.6 0 l-0.56 3.2 l-3.6 0 l-2.4 13.6 l-4 0 z M10.740000000000002 40 l2.96 -16.8 c1.96 -11.16 2.76 -15.56 8.76 -15.56 s5.2 4.4 3.24 15.56 l-2.96 16.8 l-4 0 l1.64 -9.2 l-4 0 l-1.64 9.2 l-4 0 z M16.94 27.6 l4 0 l0.76 -4.4 c1.84 -10.4 2.16 -12.36 0.16 -12.36 s-2.32 1.96 -4.16 12.36 z M27.240000000000002 40 l5.64 -32 l4 0 l-2.24 12.68 l6.24 -12.68 l4 0 l-7.48 15.2 l1.84 16.8 l-4 0 l-1.52 -14 l-2.48 14 l-4 0 z M42.14 40 l5.64 -32 l9.2 0 l-0.56 3.2 l-5.2 0 l-1.84 10.4 l4.4 0 l-0.56 3.2 l-4.4 0 l-1.96 11.2 l5.2 0 l-0.72 4 l-9.2 0 z M57.04 26.4 l0.56 -3.2 l8 0 l-0.56 3.2 l-8 0 z M67.14 40 l5.64 -32 l9.2 0 l-0.56 3.2 l-5.2 0 l-1.84 10.4 l4.4 0 l-0.56 3.2 l-4.4 0 l-1.96 11.2 l5.2 0 l-0.72 4 l-9.2 0 z M79.64 40 l5.64 -32 l3.6 0 l1.8 19.6 l0 -0.4 l3.4 -19.2 l4 0 l-5.64 32 l-3.6 0 l-2.12 -17.6 l-0.04 0.4 l-3.04 17.2 l-4 0 z M96.94 40 l5.64 -32 l6 0 c6 0 5.24 4.4 3.32 15.16 c-2.16 12.4 -2.96 16.84 -8.96 16.84 l-6 0 z M101.66 36 l2 0 c2.24 0 2.52 -1.68 4.48 -12.84 c1.76 -10 2.12 -11.96 -0.12 -11.96 l-2 0 z M122.34 40 l2.96 -16.8 c1.96 -11.16 2.76 -15.56 8.76 -15.56 s5.2 4.4 3.24 15.56 l-2.96 16.8 l-4 0 l1.64 -9.2 l-4 0 l-1.64 9.2 l-4 0 z M128.54 27.6 l4 0 l0.76 -4.4 c1.84 -10.4 2.16 -12.36 0.16 -12.36 s-2.32 1.96 -4.16 12.36 z M138.84 40 l5.64 -32 l6.48 0 c4.12 0 4.76 2.52 4 8.56 l-0.2 1.28 c-1.4 6.04 -2.92 8.56 -7.04 8.56 l-2.48 0 l-2.4 13.6 l-4 0 z M145.8 23.2 l2.48 0 c1.2 0 1.8 -1 2.76 -5.36 l0.2 -1.28 c0.6 -4.36 0.36 -5.36 -0.84 -5.36 l-2.48 0 z M154.14000000000001 40 l5.64 -32 l4 0 l-5.64 32 l-4 0 z"></path></g>
			</g>
		</svg>
	